<svg width="25" height="25" viewBox="0 0 25 25" fill="none" xmlns="http://www.w3.org/2000/svg">
<g clip-path="url(#clip0_718_1004)">
<path d="M0.248704 12.1847C0.249898 11.7189 0.448037 11.2757 0.793142 10.9672L8.27015 4.31193C8.6716 3.97958 9.26122 4.02854 9.6037 4.42265C9.94618 4.81677 9.91843 5.41441 9.54095 5.77434L3.76415 10.9151C3.71228 10.9616 3.6942 11.0357 3.71869 11.1013C3.74318 11.1669 3.80517 11.2104 3.87451 11.2107H23.3389C23.8708 11.2107 24.302 11.6468 24.302 12.1847C24.302 12.7227 23.8708 13.1588 23.3389 13.1588H3.87651C3.80722 13.1594 3.74546 13.2031 3.72103 13.2687C3.6966 13.3343 3.71452 13.4083 3.76615 13.455L9.54296 18.5958C9.81811 18.8205 9.94932 19.1797 9.88471 19.5314C9.8201 19.8831 9.57009 20.1707 9.23347 20.2805C8.89685 20.3903 8.5278 20.3047 8.27216 20.0575L0.793811 13.4023C0.448317 13.0939 0.249896 12.6507 0.248704 12.1847Z" fill="#343A40"/>
</g>
<defs>
<clipPath id="clip0_718_1004">
<rect width="24.0533" height="24.0533" fill="white" transform="matrix(-1 0 0 1 24.302 0.0827026)"/>
</clipPath>
</defs>
</svg>
